<?xml version="1.0" encoding="UTF-8" standalone="no"?>
<!-- Created with Inkscape (http://www.inkscape.org/) -->

<svg
   version="1.1"
   id="svg1"
   width="888.12549"
   height="206.13657"
   viewBox="0 0 888.12549 206.13657"
   xmlns="http://www.w3.org/2000/svg"
   xmlns:svg="http://www.w3.org/2000/svg">
  <defs
     id="defs1">
    <clipPath
       clipPathUnits="userSpaceOnUse"
       id="clipPath4">
      <path
         d="M 0,0 H 365760 V 205740 H 0 Z"
         id="path4" />
    </clipPath>
    <clipPath
       clipPathUnits="userSpaceOnUse"
       id="clipPath6">
      <path
         d="M 0,0 H 365760 V 205740 H 0 Z"
         id="path6" />
    </clipPath>
    <clipPath
       clipPathUnits="userSpaceOnUse"
       id="clipPath14">
      <path
         d="M 0,0 H 365760 V 205740 H 0 Z"
         id="path14" />
    </clipPath>
    <clipPath
       clipPathUnits="userSpaceOnUse"
       id="clipPath22">
      <path
         d="M 0,0 H 365760 V 205740 H 0 Z"
         id="path22" />
    </clipPath>
    <clipPath
       clipPathUnits="userSpaceOnUse"
       id="clipPath23">
      <path
         d="M 0,0 H 365760 V 205740 H 0 Z"
         transform="matrix(0.00262467,0,0,0.00262467,-753.66707,-244.12711)"
         id="path23" />
    </clipPath>
    <clipPath
       clipPathUnits="userSpaceOnUse"
       id="clipPath25">
      <path
         d="M 0,0 H 365760 V 205740 H 0 Z"
         id="path25" />
    </clipPath>
    <clipPath
       clipPathUnits="userSpaceOnUse"
       id="clipPath26">
      <path
         d="M 0,0 H 365760 V 205740 H 0 Z"
         transform="matrix(0.00262467,0,0,0.00262467,-797.45325,-347.51589)"
         id="path26" />
    </clipPath>
    <clipPath
       clipPathUnits="userSpaceOnUse"
       id="clipPath28">
      <path
         d="M 0,0 H 365760 V 205740 H 0 Z"
         id="path28" />
    </clipPath>
    <clipPath
       clipPathUnits="userSpaceOnUse"
       id="clipPath29">
      <path
         d="M 0,0 H 365760 V 205740 H 0 Z"
         transform="matrix(0.00262467,0,0,0.00262467,-66.41539,-292.52903)"
         id="path29" />
    </clipPath>
    <clipPath
       clipPathUnits="userSpaceOnUse"
       id="clipPath31">
      <path
         d="M 0,0 H 365760 V 205740 H 0 Z"
         id="path31" />
    </clipPath>
    <clipPath
       clipPathUnits="userSpaceOnUse"
       id="clipPath33">
      <path
         d="M 0,0 H 365760 V 205740 H 0 Z"
         id="path33" />
    </clipPath>
    <clipPath
       clipPathUnits="userSpaceOnUse"
       id="clipPath35">
      <path
         d="M 0,0 H 365760 V 205740 H 0 Z"
         id="path35" />
    </clipPath>
    <clipPath
       clipPathUnits="userSpaceOnUse"
       id="clipPath37">
      <path
         d="M 0,0 H 365760 V 205740 H 0 Z"
         id="path37" />
    </clipPath>
    <clipPath
       clipPathUnits="userSpaceOnUse"
       id="clipPath39">
      <path
         d="M 0,0 H 365760 V 205740 H 0 Z"
         id="path39" />
    </clipPath>
    <clipPath
       clipPathUnits="userSpaceOnUse"
       id="clipPath41">
      <path
         d="M 0,0 H 365760 V 205740 H 0 Z"
         id="path41" />
    </clipPath>
    <clipPath
       clipPathUnits="userSpaceOnUse"
       id="clipPath49">
      <path
         d="M 0,0 H 365760 V 205740 H 0 Z"
         id="path49" />
    </clipPath>
    <clipPath
       clipPathUnits="userSpaceOnUse"
       id="clipPath50">
      <path
         d="M 0,0 H 365760 V 205740 H 0 Z"
         transform="matrix(0.00262467,0,0,0.00262467,-520.96844,-325.98502)"
         id="path50" />
    </clipPath>
    <clipPath
       clipPathUnits="userSpaceOnUse"
       id="clipPath52">
      <path
         d="M 0,0 H 365760 V 205740 H 0 Z"
         id="path52" />
    </clipPath>
    <clipPath
       clipPathUnits="userSpaceOnUse"
       id="clipPath53">
      <path
         d="M 0,0 H 365760 V 205740 H 0 Z"
         transform="matrix(0.00262467,0,0,0.00262467,-273.24139,-292.7149)"
         id="path53" />
    </clipPath>
    <clipPath
       clipPathUnits="userSpaceOnUse"
       id="clipPath55">
      <path
         d="M 0,0 H 365760 V 205740 H 0 Z"
         id="path55" />
    </clipPath>
    <clipPath
       clipPathUnits="userSpaceOnUse"
       id="clipPath56">
      <path
         d="M 0,0 H 365760 V 205740 H 0 Z"
         transform="matrix(0.00262467,0,0,0.00262467,-370.58998,-244.79429)"
         id="path56" />
    </clipPath>
    <clipPath
       clipPathUnits="userSpaceOnUse"
       id="clipPath57">
      <path
         d="M 0,0 H 365760 V 205740 H 0 Z"
         transform="matrix(0.00262467,0,0,0.00262467,-370.58998,-264.61461)"
         id="path57" />
    </clipPath>
    <clipPath
       clipPathUnits="userSpaceOnUse"
       id="clipPath59">
      <path
         d="M 0,0 H 365760 V 205740 H 0 Z"
         id="path59" />
    </clipPath>
    <clipPath
       clipPathUnits="userSpaceOnUse"
       id="clipPath61">
      <path
         d="M 0,0 H 365760 V 205740 H 0 Z"
         id="path61" />
    </clipPath>
    <clipPath
       clipPathUnits="userSpaceOnUse"
       id="clipPath63">
      <path
         d="M 0,0 H 365760 V 205740 H 0 Z"
         id="path63" />
    </clipPath>
    <clipPath
       clipPathUnits="userSpaceOnUse"
       id="clipPath65">
      <path
         d="M 0,0 H 365760 V 205740 H 0 Z"
         id="path65" />
    </clipPath>
    <clipPath
       clipPathUnits="userSpaceOnUse"
       id="clipPath67">
      <path
         d="M 0,0 H 365760 V 205740 H 0 Z"
         id="path67" />
    </clipPath>
    <clipPath
       clipPathUnits="userSpaceOnUse"
       id="clipPath69">
      <path
         d="M 0,0 H 365760 V 205740 H 0 Z"
         id="path69" />
    </clipPath>
    <clipPath
       clipPathUnits="userSpaceOnUse"
       id="clipPath71">
      <path
         d="M 0,0 H 365760 V 205740 H 0 Z"
         id="path71" />
    </clipPath>
    <clipPath
       clipPathUnits="userSpaceOnUse"
       id="clipPath73">
      <path
         d="M 0,0 H 365760 V 205740 H 0 Z"
         id="path73" />
    </clipPath>
    <clipPath
       clipPathUnits="userSpaceOnUse"
       id="clipPath75">
      <path
         d="M 0,0 H 365760 V 205740 H 0 Z"
         id="path75" />
    </clipPath>
    <clipPath
       clipPathUnits="userSpaceOnUse"
       id="clipPath77">
      <path
         d="M 0,0 H 365760 V 205740 H 0 Z"
         id="path77" />
    </clipPath>
    <clipPath
       clipPathUnits="userSpaceOnUse"
       id="clipPath78">
      <path
         d="M 0,0 H 365760 V 205740 H 0 Z"
         transform="matrix(0.00262467,0,0,0.00262467,-370.58998,-322.51494)"
         id="path78" />
    </clipPath>
    <clipPath
       clipPathUnits="userSpaceOnUse"
       id="clipPath79">
      <path
         d="M 0,0 H 365760 V 205740 H 0 Z"
         transform="matrix(0.00262467,0,0,0.00262467,-370.58998,-342.33526)"
         id="path79" />
    </clipPath>
    <clipPath
       clipPathUnits="userSpaceOnUse"
       id="clipPath81">
      <path
         d="M 0,0 H 365760 V 205740 H 0 Z"
         id="path81" />
    </clipPath>
    <clipPath
       clipPathUnits="userSpaceOnUse"
       id="clipPath83">
      <path
         d="M 0,0 H 365760 V 205740 H 0 Z"
         id="path83" />
    </clipPath>
    <clipPath
       clipPathUnits="userSpaceOnUse"
       id="clipPath85">
      <path
         d="M 0,0 H 365760 V 205740 H 0 Z"
         id="path85" />
    </clipPath>
    <clipPath
       clipPathUnits="userSpaceOnUse"
       id="clipPath87">
      <path
         d="M 0,0 H 365760 V 205740 H 0 Z"
         id="path87" />
    </clipPath>
    <clipPath
       clipPathUnits="userSpaceOnUse"
       id="clipPath89">
      <path
         d="M 0,0 H 365760 V 205740 H 0 Z"
         id="path89" />
    </clipPath>
    <clipPath
       clipPathUnits="userSpaceOnUse"
       id="clipPath91">
      <path
         d="M 0,0 H 365760 V 205740 H 0 Z"
         id="path91" />
    </clipPath>
    <clipPath
       clipPathUnits="userSpaceOnUse"
       id="clipPath93">
      <path
         d="M 0,0 H 365760 V 205740 H 0 Z"
         id="path93" />
    </clipPath>
    <clipPath
       clipPathUnits="userSpaceOnUse"
       id="clipPath95">
      <path
         d="M 0,0 H 365760 V 205740 H 0 Z"
         id="path95" />
    </clipPath>
    <clipPath
       clipPathUnits="userSpaceOnUse"
       id="clipPath96">
      <path
         d="M 0,0 H 365760 V 205740 H 0 Z"
         transform="matrix(0.00262467,0,0,0.00262467,-540.34324,-284.1873)"
         id="path96" />
    </clipPath>
    <clipPath
       clipPathUnits="userSpaceOnUse"
       id="clipPath98">
      <path
         d="M 0,0 H 365760 V 205740 H 0 Z"
         id="path98" />
    </clipPath>
    <clipPath
       clipPathUnits="userSpaceOnUse"
       id="clipPath100">
      <path
         d="M 0,0 H 365760 V 205740 H 0 Z"
         id="path100" />
    </clipPath>
    <clipPath
       clipPathUnits="userSpaceOnUse"
       id="clipPath102">
      <path
         d="M 0,0 H 365760 V 205740 H 0 Z"
         id="path102" />
    </clipPath>
  </defs>
  <g
     id="g1"
     transform="translate(-38.843807,-181.63226)">
    <path
       id="path3"
       d="m 82455,86286.23 v 0 C 82455,79949.19 87592.19,74812 93929.23,74812 h 149131.54 c 3043.15,0 5961.67,1208.89 8113.51,3360.73 2151.83,2151.83 3360.72,5070.35 3360.72,8113.5 v 45895.54 c 0,6337.04 -5137.19,11474.23 -11474.23,11474.23 H 93929.23 v 0 C 87592.19,143656 82455,138518.81 82455,132181.77 Z"
       style="fill:#eeeeee;fill-opacity:1;fill-rule:evenodd;stroke:#595959;stroke-width:381;stroke-linecap:butt;stroke-linejoin:round;stroke-miterlimit:8;stroke-dasharray:none;stroke-opacity:1"
       transform="scale(0.00262467)"
       clip-path="url(#clipPath4)" />
    <path
       id="path5"
       d="M 311880.88,82843.87 V 69201.945 h -266076 v 32085.925"
       style="fill:#000000;fill-opacity:0;fill-rule:evenodd;stroke:none"
       transform="scale(0.00262467)"
       clip-path="url(#clipPath6)" />
    <path
       id="path13"
       d="m 310604.34,138182.98 v 9557.05 H 45800.35 v -30509.05"
       style="fill:#000000;fill-opacity:0;fill-rule:evenodd;stroke:none"
       transform="scale(0.00262467)"
       clip-path="url(#clipPath14)" />
    <path
       id="path21"
       d="m 270586.2,85501.914 v 0 c 0,-1468 1190.05,-2658.044 2658.05,-2658.044 h 77273.28 c 704.94,0 1381.03,280.04 1879.5,778.52 498.5,498.485 778.53,1174.57 778.53,1879.524 V 96133.81 c 0,1468 -1190.03,2658.06 -2658.03,2658.06 h -77273.28 v 0 c -1468,0 -2658.05,-1190.06 -2658.05,-2658.06 z"
       style="fill:#6aa84f;fill-opacity:1;fill-rule:evenodd;stroke:none"
       transform="scale(0.00262467)"
       clip-path="url(#clipPath22)" />
    <text
       id="text22"
       xml:space="preserve"
       transform="translate(733.52103,243.19009)"
       clip-path="url(#clipPath23)"><tspan
         id="tspan22"
         style="font-variant:normal;font-weight:normal;font-size:16px;font-family:Arial;writing-mode:lr-tb;fill:#ffffff;fill-opacity:1;fill-rule:nonzero;stroke:none"
         x="0"
         y="0">System Response (Text) </tspan></text>
    <path
       id="path24"
       d="m 269309.66,124893.04 v 0 c 0,-1468 1190.06,-2658.06 2658.06,-2658.06 H 349241 c 704.94,0 1381.03,280.05 1879.53,778.53 498.47,498.48 778.5,1174.57 778.5,1879.53 v 10631.9 c 0,1468 -1190.03,2658.04 -2658.03,2658.04 h -77273.28 v 0 c -1468,0 -2658.06,-1190.04 -2658.06,-2658.04 z"
       style="fill:#8bb86d;fill-opacity:1;fill-rule:evenodd;stroke:none"
       transform="scale(0.00262467)"
       clip-path="url(#clipPath25)" />
    <text
       id="text25"
       xml:space="preserve"
       transform="translate(767.93696,346.57887)"
       clip-path="url(#clipPath26)"><tspan
         id="tspan25"
         style="font-variant:normal;font-weight:normal;font-size:16px;font-family:Arial;writing-mode:lr-tb;fill:#ffffff;fill-opacity:1;fill-rule:nonzero;stroke:none"
         x="0"
         y="0">POIs (JSON)</tspan></text>
    <path
       id="path27"
       d="m 14799.502,103943.06 v 0 c 0,-1468 1190.052,-2658.06 2658.053,-2658.06 H 74144.19 c 704.96,0 1381.044,280.05 1879.52,778.52 498.485,498.49 778.53,1174.57 778.53,1879.54 v 10631.88 c 0,1468 -1190.05,2658.06 -2658.05,2658.06 H 17457.555 c -1468.001,0 -2658.053,-1190.06 -2658.053,-2658.06 z"
       style="fill:#ffab40;fill-opacity:1;fill-rule:evenodd;stroke:none"
       transform="scale(0.00262467)"
       clip-path="url(#clipPath28)" />
    <text
       id="text28"
       xml:space="preserve"
       transform="translate(43.458279,291.59201)"
       clip-path="url(#clipPath29)"><tspan
         id="tspan28"
         style="font-variant:normal;font-weight:normal;font-size:16px;font-family:Arial;writing-mode:lr-tb;fill:#ffffff;fill-opacity:1;fill-rule:nonzero;stroke:none"
         x="0"
         y="0">User Utterance (Text)</tspan></text>
    <path
       id="path30"
       d="m 253679.83,90829.87 16906.37,-12"
       style="fill:#000000;fill-opacity:0;fill-rule:evenodd;stroke:none"
       transform="scale(0.00262467)"
       clip-path="url(#clipPath31)" />
    <path
       id="path32"
       d="m 253679.83,90829.87 14620.37,-10.38"
       style="fill:none;stroke:#000000;stroke-width:381;stroke-linecap:butt;stroke-linejoin:round;stroke-miterlimit:8;stroke-dasharray:none;stroke-opacity:1"
       transform="scale(0.00262467)"
       clip-path="url(#clipPath33)" />
    <path
       id="path34"
       d="m 268300.62,91448.8 1728.58,-630.534 -1729.45,-628.086 z"
       style="fill:#000000;fill-opacity:1;fill-rule:evenodd;stroke:#000000;stroke-width:381;stroke-linecap:butt;stroke-linejoin:miter;stroke-miterlimit:10;stroke-dasharray:none;stroke-opacity:1"
       transform="scale(0.00262467)"
       clip-path="url(#clipPath35)" />
    <path
       id="path36"
       d="m 253361.72,130004.98 15947.94,204"
       style="fill:#000000;fill-opacity:0;fill-rule:evenodd;stroke:none"
       transform="scale(0.00262467)"
       clip-path="url(#clipPath37)" />
    <path
       id="path38"
       d="m 253361.72,130004.98 13662.12,174.76"
       style="fill:none;stroke:#000000;stroke-width:381;stroke-linecap:butt;stroke-linejoin:round;stroke-miterlimit:8;stroke-dasharray:none;stroke-opacity:1"
       transform="scale(0.00262467)"
       clip-path="url(#clipPath39)" />
    <path
       id="path40"
       d="m 267015.78,130809 1736.94,-607.14 -1720.82,-651.38 z"
       style="fill:#000000;fill-opacity:1;fill-rule:evenodd;stroke:#000000;stroke-width:381;stroke-linecap:butt;stroke-linejoin:miter;stroke-miterlimit:10;stroke-dasharray:none;stroke-opacity:1"
       transform="scale(0.00262467)"
       clip-path="url(#clipPath41)" />
    <path
       id="path48"
       d="m 189261.5,80925.125 h 52830.2 v 53771.435 h -52830.2 z"
       style="fill:#cfe2f3;fill-opacity:1;fill-rule:evenodd;stroke:none"
       transform="scale(0.00262467)"
       clip-path="url(#clipPath49)" />
    <text
       id="text49"
       xml:space="preserve"
       transform="translate(520.96844,325.98502)"
       clip-path="url(#clipPath50)"><tspan
         id="tspan49"
         style="font-variant:normal;font-weight:normal;font-size:15.1836px;font-family:Arial;writing-mode:lr-tb;fill:#000000;fill-opacity:1;fill-rule:nonzero;stroke:none"
         x="0"
         y="0">RAG Handler</tspan></text>
    <path
       id="path51"
       d="m 93850.17,80925.125 h 32750.39 V 137592.7 H 93850.17 Z"
       style="fill:#fce5cd;fill-opacity:1;fill-rule:evenodd;stroke:none"
       transform="scale(0.00262467)"
       clip-path="url(#clipPath52)" />
    <text
       id="text52"
       xml:space="preserve"
       transform="translate(273.24139,292.7149)"
       clip-path="url(#clipPath53)"><tspan
         id="tspan52"
         style="font-variant:normal;font-weight:normal;font-size:16.5169px;font-family:Arial;writing-mode:lr-tb;fill:#000000;fill-opacity:1;fill-rule:nonzero;stroke:none"
         x="0"
         y="0">LLM</tspan></text>
    <path
       id="path54"
       d="m 138908.78,84616.34 h 38043.86 v 20321.17 h -38043.86 z"
       style="fill:#cfdade;fill-opacity:1;fill-rule:evenodd;stroke:none"
       transform="scale(0.00262467)"
       clip-path="url(#clipPath55)" />
    <text
       id="text55"
       xml:space="preserve"
       transform="translate(370.58998,244.79429)"
       clip-path="url(#clipPath56)"><tspan
         id="tspan55"
         style="font-variant:normal;font-weight:normal;font-size:16.5169px;font-family:Arial;writing-mode:lr-tb;fill:#000000;fill-opacity:1;fill-rule:nonzero;stroke:none"
         x="0"
         y="0">Structured </tspan></text>
    <text
       id="text56"
       xml:space="preserve"
       transform="translate(370.58998,264.61461)"
       clip-path="url(#clipPath57)"><tspan
         id="tspan56"
         style="font-variant:normal;font-weight:normal;font-size:16.5169px;font-family:Arial;writing-mode:lr-tb;fill:#000000;fill-opacity:1;fill-rule:nonzero;stroke:none"
         x="0"
         y="0">Request</tspan></text>
    <path
       id="path58"
       d="m 126736.99,94704.52 12171.79,72.41"
       style="fill:#000000;fill-opacity:0;fill-rule:evenodd;stroke:none"
       transform="scale(0.00262467)"
       clip-path="url(#clipPath59)" />
    <path
       id="path60"
       d="m 126736.99,94704.52 10641.82,63.31"
       style="fill:none;stroke:#595959;stroke-width:255;stroke-linecap:butt;stroke-linejoin:round;stroke-miterlimit:8;stroke-dasharray:none;stroke-opacity:1"
       transform="scale(0.00262467)"
       clip-path="url(#clipPath61)" />
    <path
       id="path62"
       d="m 137376.3,95189.016 1159.7,-414.306 -1154.69,-428.07 z"
       style="fill:#595959;fill-opacity:1;fill-rule:evenodd;stroke:#595959;stroke-width:255;stroke-linecap:butt;stroke-linejoin:miter;stroke-miterlimit:10;stroke-dasharray:none;stroke-opacity:1"
       transform="scale(0.00262467)"
       clip-path="url(#clipPath63)" />
    <path
       id="path64"
       d="m 176952.64,94776.93 12195.91,128.72"
       style="fill:#000000;fill-opacity:0;fill-rule:evenodd;stroke:none"
       transform="scale(0.00262467)"
       clip-path="url(#clipPath65)" />
    <path
       id="path66"
       d="m 176952.64,94776.93 10665.98,112.57"
       style="fill:none;stroke:#595959;stroke-width:255;stroke-linecap:butt;stroke-linejoin:round;stroke-miterlimit:8;stroke-dasharray:none;stroke-opacity:1"
       transform="scale(0.00262467)"
       clip-path="url(#clipPath67)" />
    <path
       id="path68"
       d="m 187614.19,95310.67 1161.59,-408.96 -1152.7,-433.374 z"
       style="fill:#595959;fill-opacity:1;fill-rule:evenodd;stroke:#595959;stroke-width:255;stroke-linecap:butt;stroke-linejoin:miter;stroke-miterlimit:10;stroke-dasharray:none;stroke-opacity:1"
       transform="scale(0.00262467)"
       clip-path="url(#clipPath69)" />
    <path
       id="path70"
       d="m 189245.1,124340.23 h -6146.24 v 48.27 h -6146.22"
       style="fill:#000000;fill-opacity:0;fill-rule:evenodd;stroke:none"
       transform="scale(0.00262467)"
       clip-path="url(#clipPath71)" />
    <path
       id="path72"
       d="m 189245.1,124340.23 h -6146.24 v 48.27 h -4616.22"
       style="fill:none;stroke:#595959;stroke-width:255;stroke-linecap:butt;stroke-linejoin:round;stroke-miterlimit:8;stroke-dasharray:none;stroke-opacity:1"
       transform="scale(0.00262467)"
       clip-path="url(#clipPath73)" />
    <path
       id="path74"
       d="m 178482.64,123967.31 -1157.22,421.19 1157.22,421.2 z"
       style="fill:#595959;fill-opacity:1;fill-rule:evenodd;stroke:#595959;stroke-width:255;stroke-linecap:butt;stroke-linejoin:miter;stroke-miterlimit:10;stroke-dasharray:none;stroke-opacity:1"
       transform="scale(0.00262467)"
       clip-path="url(#clipPath75)" />
    <path
       id="path76"
       d="m 138908.78,114227.91 h 38043.86 v 20321.17 h -38043.86 z"
       style="fill:#b6d7a8;fill-opacity:1;fill-rule:evenodd;stroke:none"
       transform="scale(0.00262467)"
       clip-path="url(#clipPath77)" />
    <text
       id="text77"
       xml:space="preserve"
       transform="translate(370.58998,322.51494)"
       clip-path="url(#clipPath78)"><tspan
         id="tspan77"
         style="font-variant:normal;font-weight:normal;font-size:16.5169px;font-family:Arial;writing-mode:lr-tb;fill:#000000;fill-opacity:1;fill-rule:nonzero;stroke:none"
         x="0"
         y="0">Retrieved </tspan></text>
    <text
       id="text78"
       xml:space="preserve"
       transform="translate(370.58998,342.33526)"
       clip-path="url(#clipPath79)"><tspan
         id="tspan78"
         style="font-variant:normal;font-weight:normal;font-size:16.5169px;font-family:Arial;writing-mode:lr-tb;fill:#000000;fill-opacity:1;fill-rule:nonzero;stroke:none"
         x="0"
         y="0">POIs</tspan></text>
    <path
       id="path80"
       d="m 138908.78,124388.5 h -6150.25 v 24.13 h -6150.25"
       style="fill:#000000;fill-opacity:0;fill-rule:evenodd;stroke:none"
       transform="scale(0.00262467)"
       clip-path="url(#clipPath81)" />
    <path
       id="path82"
       d="m 138908.78,124388.5 h -6150.25 v 24.13 h -4620.25"
       style="fill:none;stroke:#595959;stroke-width:255;stroke-linecap:butt;stroke-linejoin:round;stroke-miterlimit:8;stroke-dasharray:none;stroke-opacity:1"
       transform="scale(0.00262467)"
       clip-path="url(#clipPath83)" />
    <path
       id="path84"
       d="m 128138.28,123991.44 -1157.22,421.19 1157.22,421.2 z"
       style="fill:#595959;fill-opacity:1;fill-rule:evenodd;stroke:#595959;stroke-width:255;stroke-linecap:butt;stroke-linejoin:miter;stroke-miterlimit:10;stroke-dasharray:none;stroke-opacity:1"
       transform="scale(0.00262467)"
       clip-path="url(#clipPath85)" />
    <path
       id="path86"
       d="m 201172.83,98091.39 v 0 c 0,-1870.515 6493.56,-3386.87 14503.78,-3386.87 8010.2,0 14503.77,1516.355 14503.77,3386.87 v 13547.44 c 0,1870.51 -6493.57,3386.86 -14503.77,3386.86 -8010.22,0 -14503.78,-1516.35 -14503.78,-3386.86 z"
       style="fill:#6fa8dc;fill-opacity:1;fill-rule:evenodd;stroke:none"
       transform="scale(0.00262467)"
       clip-path="url(#clipPath87)" />
    <path
       id="path88"
       d="m 230180.38,98091.39 v 0 c 0,1870.51 -6493.57,3386.86 -14503.77,3386.86 -8010.22,0 -14503.78,-1516.35 -14503.78,-3386.86"
       style="fill:#000000;fill-opacity:0;fill-rule:evenodd;stroke:none"
       transform="scale(0.00262467)"
       clip-path="url(#clipPath89)" />
    <path
       id="path90"
       d="m 201172.83,98091.39 v 0 c 0,-1870.515 6493.56,-3386.87 14503.78,-3386.87 8010.2,0 14503.77,1516.355 14503.77,3386.87 v 13547.44 c 0,1870.51 -6493.57,3386.86 -14503.77,3386.86 -8010.22,0 -14503.78,-1516.35 -14503.78,-3386.86 z"
       style="fill:#000000;fill-opacity:0;fill-rule:evenodd;stroke:none"
       transform="scale(0.00262467)"
       clip-path="url(#clipPath91)" />
    <path
       id="path92"
       d="m 230180.38,98091.39 v 0 c 0,1870.51 -6493.57,3386.86 -14503.77,3386.86 -8010.22,0 -14503.78,-1516.35 -14503.78,-3386.86"
       style="fill:none;stroke:#1155cc;stroke-width:255;stroke-linecap:butt;stroke-linejoin:round;stroke-miterlimit:8;stroke-dasharray:none;stroke-opacity:1"
       transform="scale(0.00262467)"
       clip-path="url(#clipPath93)" />
    <path
       id="path94"
       d="m 201172.83,98091.39 v 0 c 0,-1870.515 6493.56,-3386.87 14503.78,-3386.87 8010.2,0 14503.77,1516.355 14503.77,3386.87 v 13547.44 c 0,1870.51 -6493.57,3386.86 -14503.77,3386.86 -8010.22,0 -14503.78,-1516.35 -14503.78,-3386.86 z"
       style="fill:none;stroke:#1155cc;stroke-width:255;stroke-linecap:butt;stroke-linejoin:round;stroke-miterlimit:8;stroke-dasharray:none;stroke-opacity:1"
       transform="scale(0.00262467)"
       clip-path="url(#clipPath95)" />
    <text
       id="text95"
       xml:space="preserve"
       transform="translate(540.34324,284.1873)"
       clip-path="url(#clipPath96)"><tspan
         id="tspan95"
         style="font-variant:normal;font-weight:normal;font-size:12.5169px;font-family:Arial;writing-mode:lr-tb;fill:#000000;fill-opacity:1;fill-rule:nonzero;stroke:none"
         x="0"
         y="0">POI Data</tspan></text>
    <path
       id="path97"
       d="m 76802.24,109259 h 17052"
       style="fill:#000000;fill-opacity:0;fill-rule:evenodd;stroke:none"
       transform="scale(0.00262467)"
       clip-path="url(#clipPath98)" />
    <path
       id="path99"
       d="m 76802.24,109259 h 15522"
       style="fill:none;stroke:#595959;stroke-width:255;stroke-linecap:butt;stroke-linejoin:round;stroke-miterlimit:8;stroke-dasharray:none;stroke-opacity:1"
       transform="scale(0.00262467)"
       clip-path="url(#clipPath100)" />
    <path
       id="path101"
       d="m 92324.24,109680.2 1157.22,-421.2 -1157.22,-421.19 z"
       style="fill:#595959;fill-opacity:1;fill-rule:evenodd;stroke:#595959;stroke-width:255;stroke-linecap:butt;stroke-linejoin:miter;stroke-miterlimit:10;stroke-dasharray:none;stroke-opacity:1"
       transform="scale(0.00262467)"
       clip-path="url(#clipPath102)" />
  </g>
</svg>
